<svg width="25" height="25" viewBox="0 0 25 25" fill="none" xmlns="http://www.w3.org/2000/svg">
<path fill-rule="evenodd" clip-rule="evenodd" d="M7.61755 11.7198C7.61755 8.95843 9.85613 6.71985 12.6176 6.71985C15.379 6.71985 17.6176 8.95843 17.6176 11.7198C17.6176 13.9515 16.4255 15.9627 15.1329 17.446C14.4914 18.1821 13.8388 18.7723 13.3273 19.1759C13.0712 19.378 12.8551 19.5296 12.6978 19.628C12.668 19.6466 12.6413 19.6627 12.6176 19.6765C12.5939 19.6627 12.5672 19.6466 12.5374 19.628C12.3801 19.5296 12.164 19.378 11.9079 19.1759C11.3964 18.7723 10.7438 18.1821 10.1023 17.446C8.80963 15.9627 7.61755 13.9515 7.61755 11.7198ZM12.6176 5.71985C9.30384 5.71985 6.61755 8.40614 6.61755 11.7198C6.61755 14.3006 7.98582 16.5394 9.34836 18.103C10.0345 18.8903 10.7332 19.5228 11.2885 19.9609C11.5658 20.1798 11.812 20.3538 12.0073 20.4759C12.1042 20.5365 12.1954 20.5886 12.2758 20.6274C12.3158 20.6467 12.3604 20.6663 12.4065 20.6821C12.4427 20.6945 12.522 20.7198 12.6176 20.7198C12.7132 20.7198 12.7925 20.6945 12.8287 20.6821C12.8748 20.6663 12.9194 20.6467 12.9594 20.6274C13.0398 20.5886 13.131 20.5365 13.2279 20.4759C13.4232 20.3538 13.6694 20.1798 13.9467 19.9609C14.502 19.5228 15.2007 18.8903 15.8868 18.103C17.2493 16.5394 18.6176 14.3006 18.6176 11.7198C18.6176 8.40614 15.9313 5.71985 12.6176 5.71985ZM11.6176 11.7198C11.6176 11.1675 12.0653 10.7198 12.6176 10.7198C13.1699 10.7198 13.6176 11.1675 13.6176 11.7198C13.6176 12.2721 13.1699 12.7198 12.6176 12.7198C12.0653 12.7198 11.6176 12.2721 11.6176 11.7198ZM12.6176 9.71985C11.513 9.71985 10.6176 10.6153 10.6176 11.7198C10.6176 12.8244 11.513 13.7198 12.6176 13.7198C13.7222 13.7198 14.6176 12.8244 14.6176 11.7198C14.6176 10.6153 13.7222 9.71985 12.6176 9.71985Z" fill="#1F2026"/>
</svg>
